<svg xmlns="http://www.w3.org/2000/svg" viewBox="0 0 32 32" width="32" height="32">
  <defs>
    <linearGradient id="brainGradient" x1="0%" y1="0%" x2="100%" y2="100%">
      <stop offset="0%" style="stop-color:#667eea;stop-opacity:1" />
      <stop offset="100%" style="stop-color:#764ba2;stop-opacity:1" />
    </linearGradient>
    <linearGradient id="highlightGradient" x1="0%" y1="0%" x2="100%" y2="100%">
      <stop offset="0%" style="stop-color:#ffffff;stop-opacity:0.3" />
      <stop offset="100%" style="stop-color:#ffffff;stop-opacity:0.1" />
    </linearGradient>
  </defs>
  
  <!-- Brain shape -->
  <path d="M16 4c-3.5 0-6.5 2-8 5-1 1.5-1.5 3.5-1 5.5 0.3 1.2 1 2.2 2 3 0.5 2 2 3.5 4 4 1 0.3 2 0.3 3 0 1-0.3 2-1 2.5-2 0.5 1 1.5 1.7 2.5 2 1 0.3 2 0.3 3 0 2-0.5 3.5-2 4-4 1-0.8 1.7-1.8 2-3 0.5-2 0-4-1-5.5C22.5 6 19.5 4 16 4z" 
        fill="url(#brainGradient)" 
        stroke="#5a67d8" 
        stroke-width="0.5"/>
  
  <!-- Brain folds/details -->
  <path d="M12 8c-1 0.5-2 1.5-2.5 2.5M20 8c1 0.5 2 1.5 2.5 2.5M10 14c0.5 1 1.5 1.8 2.5 2M22 14c-0.5 1-1.5 1.8-2.5 2M14 18c0.5 0.8 1.2 1.5 2 1.8M18 18c-0.5 0.8-1.2 1.5-2 1.8" 
        stroke="#4c51bf" 
        stroke-width="0.8" 
        fill="none" 
        stroke-linecap="round"/>
  
  <!-- Highlight overlay -->
  <ellipse cx="16" cy="12" rx="10" ry="8" fill="url(#highlightGradient)" opacity="0.4"/>
  
  <!-- Puzzle piece accent -->
  <circle cx="20" cy="10" r="1.5" fill="#10b981" opacity="0.8"/>
  <circle cx="12" cy="16" r="1.2" fill="#ef4444" opacity="0.8"/>
</svg>
